<?xml version="1.0" encoding="UTF-8"?>
<svg width="383px" height="166px" viewBox="0 0 383 166" version="1.1" xmlns="http://www.w3.org/2000/svg" xmlns:xlink="http://www.w3.org/1999/xlink">
    <!-- Generator: Sketch 61 (89581) - https://sketch.com -->
    <title>Group 88</title>
    <desc>Created with Sketch.</desc>
    <defs>
        <polygon id="path-1" points="0.4386 0.38 26.6116 0.38 26.6116 40.3698 0.4386 40.3698"></polygon>
        <polygon id="path-3" points="0 166.62 382.417 166.62 382.417 1 0 1"></polygon>
    </defs>
    <g id="Page-1" stroke="none" stroke-width="1" fill="none" fill-rule="evenodd">
        <g id="Group-88" transform="translate(0.000000, -1.000000)">
            <path d="M49.8677,29.9086 C50.4887,29.9086 50.9737,29.7416 51.3247,29.4056 C51.6747,29.0706 51.8487,28.6066 51.8487,28.0156 C51.8487,27.6706 51.7847,27.3846 51.6577,27.1576 C51.5287,26.9306 51.3587,26.7506 51.1467,26.6176 C50.9347,26.4846 50.6907,26.3906 50.4147,26.3366 C50.1387,26.2826 49.8527,26.2556 49.5567,26.2556 L46.3477,26.2556 L46.3477,29.9086 L49.8677,29.9086 Z M49.1577,25.0726 C49.9557,25.0726 50.5307,24.9316 50.8807,24.6506 C51.2307,24.3696 51.4057,23.9486 51.4057,23.3866 C51.4057,23.0216 51.3467,22.7286 51.2277,22.5066 C51.1097,22.2846 50.9477,22.1146 50.7407,21.9956 C50.5337,21.8776 50.2937,21.8016 50.0227,21.7666 C49.7517,21.7326 49.4637,21.7156 49.1577,21.7156 L46.3477,21.7156 L46.3477,25.0726 L49.1577,25.0726 Z M44.9427,20.5326 L48.7727,20.5326 C48.9997,20.5326 49.2437,20.5346 49.5057,20.5396 C49.7657,20.5446 50.0247,20.5596 50.2817,20.5836 C50.5377,20.6086 50.7797,20.6456 51.0067,20.6946 C51.2327,20.7436 51.4207,20.8186 51.5687,20.9166 C51.9137,21.1236 52.2067,21.4096 52.4487,21.7746 C52.6897,22.1386 52.8107,22.5876 52.8107,23.1196 C52.8107,23.6816 52.6747,24.1676 52.4037,24.5766 C52.1327,24.9866 51.7457,25.2896 51.2427,25.4866 L51.2427,25.5156 C51.8937,25.6546 52.3917,25.9506 52.7367,26.4036 C53.0817,26.8566 53.2547,27.4086 53.2547,28.0596 C53.2547,28.4446 53.1847,28.8196 53.0477,29.1836 C52.9097,29.5486 52.7047,29.8716 52.4337,30.1526 C52.1617,30.4336 51.8267,30.6606 51.4277,30.8326 C51.0287,31.0056 50.5677,31.0916 50.0447,31.0916 L44.9427,31.0916 L44.9427,20.5326 Z" id="Fill-1" fill="#F04131"></path>
            <path d="M59.4365,31.3285 C58.6175,31.3285 57.9035,31.1875 57.2915,30.9065 C56.6805,30.6255 56.1725,30.2395 55.7685,29.7455 C55.3645,29.2525 55.0615,28.6715 54.8585,28.0005 C54.6565,27.3305 54.5555,26.6105 54.5555,25.8415 C54.5555,25.0725 54.6645,24.3495 54.8815,23.6745 C55.0985,22.9995 55.4155,22.4105 55.8345,21.9075 C56.2535,21.4045 56.7745,21.0075 57.3955,20.7165 C58.0165,20.4265 58.7365,20.2805 59.5545,20.2805 C60.1065,20.2805 60.6295,20.3545 61.1225,20.5025 C61.6155,20.6505 62.0545,20.8675 62.4385,21.1535 C62.8235,21.4395 63.1435,21.7965 63.3995,22.2255 C63.6565,22.6545 63.8235,23.1495 63.9025,23.7115 L62.4985,23.7115 C62.3395,22.9625 61.9925,22.4005 61.4555,22.0255 C60.9175,21.6515 60.2795,21.4635 59.5405,21.4635 C58.9085,21.4635 58.3695,21.5815 57.9205,21.8185 C57.4715,22.0555 57.1025,22.3735 56.8115,22.7725 C56.5205,23.1715 56.3055,23.6285 56.1675,24.1405 C56.0295,24.6535 55.9605,25.1855 55.9605,25.7375 C55.9605,26.3395 56.0295,26.9085 56.1675,27.4465 C56.3055,27.9835 56.5205,28.4515 56.8115,28.8505 C57.1025,29.2505 57.4745,29.5685 57.9275,29.8055 C58.3815,30.0415 58.9235,30.1605 59.5545,30.1605 C60.0085,30.1605 60.4175,30.0835 60.7825,29.9305 C61.1465,29.7775 61.4595,29.5665 61.7215,29.2945 C61.9825,29.0235 62.1865,28.7015 62.3345,28.3265 C62.4825,27.9515 62.5715,27.5475 62.6015,27.1135 L64.0065,27.1135 C63.8685,28.4545 63.4125,29.4925 62.6385,30.2265 C61.8645,30.9615 60.7965,31.3285 59.4365,31.3285" id="Fill-3" fill="#F04131"></path>
            <polygon id="Fill-5" fill="#F04131" points="65.7515 20.5321 73.0425 20.5321 73.0425 21.7151 67.1565 21.7151 67.1565 25.0721 72.6435 25.0721 72.6435 26.2561 67.1565 26.2561 67.1565 29.9081 73.0865 29.9081 73.0865 31.0921 65.7515 31.0921"></polygon>
            <path d="M78.9434,25.5902 C79.7414,25.5902 80.3264,25.4252 80.6954,25.0942 C81.0654,24.7642 81.2504,24.2832 81.2504,23.6532 C81.2504,23.0222 81.0654,22.5412 80.6954,22.2112 C80.3264,21.8802 79.7414,21.7152 78.9434,21.7152 L76.1924,21.7152 L76.1924,25.5902 L78.9434,25.5902 Z M74.7874,20.5322 L79.4164,20.5322 C80.4914,20.5322 81.2994,20.8052 81.8414,21.3532 C82.3844,21.9002 82.6554,22.6672 82.6554,23.6532 C82.6554,24.6382 82.3844,25.4052 81.8414,25.9522 C81.2994,26.4992 80.4914,26.7732 79.4164,26.7732 L76.1924,26.7732 L76.1924,31.0912 L74.7874,31.0912 L74.7874,20.5322 Z" id="Fill-7" fill="#F04131"></path>
            <path d="M88.8374,30.16 C89.4784,30.16 90.0304,30.034 90.4934,29.783 C90.9574,29.532 91.3374,29.199 91.6324,28.785 C91.9284,28.37 92.1454,27.905 92.2834,27.387 C92.4214,26.869 92.4904,26.344 92.4904,25.812 C92.4904,25.279 92.4214,24.754 92.2834,24.237 C92.1454,23.719 91.9284,23.253 91.6324,22.839 C91.3374,22.425 90.9574,22.092 90.4934,21.841 C90.0304,21.589 89.4784,21.464 88.8374,21.464 C88.1964,21.464 87.6444,21.589 87.1804,21.841 C86.7174,22.092 86.3374,22.425 86.0424,22.839 C85.7464,23.253 85.5294,23.719 85.3914,24.237 C85.2534,24.754 85.1844,25.279 85.1844,25.812 C85.1844,26.344 85.2534,26.869 85.3914,27.387 C85.5294,27.905 85.7464,28.37 86.0424,28.785 C86.3374,29.199 86.7174,29.532 87.1804,29.783 C87.6444,30.034 88.1964,30.16 88.8374,30.16 M88.8374,31.328 C87.9994,31.328 87.2644,31.178 86.6334,30.877 C86.0024,30.577 85.4754,30.17 85.0514,29.657 C84.6274,29.144 84.3094,28.558 84.0974,27.897 C83.8854,27.237 83.7794,26.541 83.7794,25.812 C83.7794,25.092 83.8854,24.399 84.0974,23.734 C84.3094,23.068 84.6274,22.479 85.0514,21.967 C85.4754,21.454 86.0024,21.045 86.6334,20.739 C87.2644,20.433 87.9994,20.281 88.8374,20.281 C89.6754,20.281 90.4094,20.433 91.0414,20.739 C91.6714,21.045 92.1994,21.454 92.6234,21.967 C93.0474,22.479 93.3654,23.068 93.5774,23.734 C93.7894,24.399 93.8954,25.092 93.8954,25.812 C93.8954,26.541 93.7894,27.237 93.5774,27.897 C93.3654,28.558 93.0474,29.144 92.6234,29.657 C92.1994,30.17 91.6714,30.577 91.0414,30.877 C90.4094,31.178 89.6754,31.328 88.8374,31.328" id="Fill-9" fill="#F04131"></path>
            <path d="M99.9736,31.3285 C99.1546,31.3285 98.4406,31.1875 97.8286,30.9065 C97.2176,30.6255 96.7096,30.2395 96.3056,29.7455 C95.9016,29.2525 95.5986,28.6715 95.3956,28.0005 C95.1936,27.3305 95.0926,26.6105 95.0926,25.8415 C95.0926,25.0725 95.2016,24.3495 95.4186,23.6745 C95.6356,22.9995 95.9526,22.4105 96.3716,21.9075 C96.7906,21.4045 97.3116,21.0075 97.9326,20.7165 C98.5536,20.4265 99.2736,20.2805 100.0916,20.2805 C100.6436,20.2805 101.1666,20.3545 101.6596,20.5025 C102.1526,20.6505 102.5916,20.8675 102.9756,21.1535 C103.3606,21.4395 103.6806,21.7965 103.9366,22.2255 C104.1936,22.6545 104.3606,23.1495 104.4396,23.7115 L103.0356,23.7115 C102.8766,22.9625 102.5296,22.4005 101.9926,22.0255 C101.4546,21.6515 100.8166,21.4635 100.0776,21.4635 C99.4456,21.4635 98.9066,21.5815 98.4576,21.8185 C98.0086,22.0555 97.6396,22.3735 97.3486,22.7725 C97.0576,23.1715 96.8426,23.6285 96.7046,24.1405 C96.5666,24.6535 96.4976,25.1855 96.4976,25.7375 C96.4976,26.3395 96.5666,26.9085 96.7046,27.4465 C96.8426,27.9835 97.0576,28.4515 97.3486,28.8505 C97.6396,29.2505 98.0116,29.5685 98.4646,29.8055 C98.9186,30.0415 99.4606,30.1605 100.0916,30.1605 C100.5456,30.1605 100.9546,30.0835 101.3196,29.9305 C101.6836,29.7775 101.9966,29.5665 102.2586,29.2945 C102.5196,29.0235 102.7236,28.7015 102.8716,28.3265 C103.0196,27.9515 103.1086,27.5475 103.1386,27.1135 L104.5436,27.1135 C104.4056,28.4545 103.9496,29.4925 103.1756,30.2265 C102.4016,30.9615 101.3336,31.3285 99.9736,31.3285" id="Fill-11" fill="#F04131"></path>
            <path d="M110.6514,31.3285 C109.8324,31.3285 109.1184,31.1875 108.5064,30.9065 C107.8954,30.6255 107.3874,30.2395 106.9834,29.7455 C106.5794,29.2525 106.2764,28.6715 106.0734,28.0005 C105.8714,27.3305 105.7704,26.6105 105.7704,25.8415 C105.7704,25.0725 105.8794,24.3495 106.0964,23.6745 C106.3134,22.9995 106.6304,22.4105 107.0494,21.9075 C107.4684,21.4045 107.9894,21.0075 108.6104,20.7165 C109.2314,20.4265 109.9514,20.2805 110.7694,20.2805 C111.3214,20.2805 111.8444,20.3545 112.3374,20.5025 C112.8304,20.6505 113.2694,20.8675 113.6534,21.1535 C114.0384,21.4395 114.3584,21.7965 114.6144,22.2255 C114.8714,22.6545 115.0384,23.1495 115.1174,23.7115 L113.7134,23.7115 C113.5544,22.9625 113.2074,22.4005 112.6704,22.0255 C112.1324,21.6515 111.4944,21.4635 110.7554,21.4635 C110.1234,21.4635 109.5844,21.5815 109.1354,21.8185 C108.6864,22.0555 108.3174,22.3735 108.0264,22.7725 C107.7354,23.1715 107.5204,23.6285 107.3824,24.1405 C107.2444,24.6535 107.1754,25.1855 107.1754,25.7375 C107.1754,26.3395 107.2444,26.9085 107.3824,27.4465 C107.5204,27.9835 107.7354,28.4515 108.0264,28.8505 C108.3174,29.2505 108.6894,29.5685 109.1424,29.8055 C109.5964,30.0415 110.1384,30.1605 110.7694,30.1605 C111.2234,30.1605 111.6324,30.0835 111.9974,29.9305 C112.3614,29.7775 112.6744,29.5665 112.9364,29.2945 C113.1974,29.0235 113.4014,28.7015 113.5494,28.3265 C113.6974,27.9515 113.7864,27.5475 113.8164,27.1135 L115.2214,27.1135 C115.0834,28.4545 114.6274,29.4925 113.8534,30.2265 C113.0794,30.9615 112.0114,31.3285 110.6514,31.3285" id="Fill-13" fill="#F04131"></path>
            <polygon id="Fill-15" fill="#F04131" points="116.9663 20.5321 118.3713 20.5321 118.3713 29.4801 123.6803 20.5321 125.4553 20.5321 125.4553 31.0921 124.0503 31.0921 124.0503 22.1151 118.7263 31.0921 116.9663 31.0921"></polygon>
            <path d="M132.0068,19.8368 C131.2088,19.8368 130.5678,19.6648 130.0848,19.3188 C129.6008,18.9738 129.3448,18.4668 129.3158,17.7958 L130.6608,17.7958 C130.7198,18.1908 130.8608,18.4638 131.0828,18.6168 C131.3048,18.7698 131.6078,18.8458 131.9918,18.8458 C132.4358,18.8458 132.7568,18.7648 132.9538,18.6018 C133.1508,18.4398 133.2738,18.1708 133.3228,17.7958 L134.6688,17.7958 C134.6688,18.0918 134.6048,18.3628 134.4768,18.6088 C134.3488,18.8558 134.1688,19.0698 133.9368,19.2528 C133.7048,19.4358 133.4238,19.5778 133.0938,19.6818 C132.7638,19.7848 132.4018,19.8368 132.0068,19.8368 L132.0068,19.8368 Z M127.7628,20.5318 L129.1678,20.5318 L129.1678,29.4798 L134.4768,20.5318 L136.2518,20.5318 L136.2518,31.0918 L134.8468,31.0918 L134.8468,22.1148 L129.5228,31.0918 L127.7628,31.0918 L127.7628,20.5318 Z" id="Fill-17" fill="#F04131"></path>
            <path d="M142.9219,31.3285 C142.1029,31.3285 141.3889,31.1875 140.7769,30.9065 C140.1659,30.6255 139.6579,30.2395 139.2539,29.7455 C138.8499,29.2525 138.5469,28.6715 138.3439,28.0005 C138.1419,27.3305 138.0409,26.6105 138.0409,25.8415 C138.0409,25.0725 138.1499,24.3495 138.3669,23.6745 C138.5839,22.9995 138.9009,22.4105 139.3199,21.9075 C139.7389,21.4045 140.2599,21.0075 140.8809,20.7165 C141.5019,20.4265 142.2219,20.2805 143.0399,20.2805 C143.5919,20.2805 144.1149,20.3545 144.6079,20.5025 C145.1009,20.6505 145.5399,20.8675 145.9239,21.1535 C146.3089,21.4395 146.6289,21.7965 146.8849,22.2255 C147.1419,22.6545 147.3089,23.1495 147.3879,23.7115 L145.9839,23.7115 C145.8249,22.9625 145.4779,22.4005 144.9409,22.0255 C144.4029,21.6515 143.7649,21.4635 143.0259,21.4635 C142.3939,21.4635 141.8549,21.5815 141.4059,21.8185 C140.9569,22.0555 140.5879,22.3735 140.2969,22.7725 C140.0059,23.1715 139.7909,23.6285 139.6529,24.1405 C139.5149,24.6535 139.4459,25.1855 139.4459,25.7375 C139.4459,26.3395 139.5149,26.9085 139.6529,27.4465 C139.7909,27.9835 140.0059,28.4515 140.2969,28.8505 C140.5879,29.2505 140.9599,29.5685 141.4129,29.8055 C141.8669,30.0415 142.4089,30.1605 143.0399,30.1605 C143.4939,30.1605 143.9029,30.0835 144.2679,29.9305 C144.6319,29.7775 144.9449,29.5665 145.2069,29.2945 C145.4679,29.0235 145.6719,28.7015 145.8199,28.3265 C145.9679,27.9515 146.0569,27.5475 146.0869,27.1135 L147.4919,27.1135 C147.3539,28.4545 146.8979,29.4925 146.1239,30.2265 C145.3499,30.9615 144.2819,31.3285 142.9219,31.3285" id="Fill-19" fill="#F04131"></path>
            <polygon id="Fill-21" fill="#F04131" points="149.2368 20.5321 150.6418 20.5321 150.6418 25.6491 155.9958 20.5321 157.8148 20.5321 152.7858 25.2351 157.9918 31.0921 156.2168 31.0921 151.7208 26.0931 150.6418 27.0981 150.6418 31.0921 149.2368 31.0921"></polygon>
            <polygon id="Fill-23" fill="#F04131" points="159.1011 20.5321 160.5061 20.5321 160.5061 29.4801 165.8151 20.5321 167.5901 20.5321 167.5901 31.0921 166.1851 31.0921 166.1851 22.1151 160.8611 31.0921 159.1011 31.0921"></polygon>
            <path d="M174.1416,19.8368 C173.3436,19.8368 172.7026,19.6648 172.2196,19.3188 C171.7356,18.9738 171.4796,18.4668 171.4506,17.7958 L172.7956,17.7958 C172.8546,18.1908 172.9956,18.4638 173.2176,18.6168 C173.4396,18.7698 173.7426,18.8458 174.1266,18.8458 C174.5706,18.8458 174.8916,18.7648 175.0886,18.6018 C175.2856,18.4398 175.4086,18.1708 175.4576,17.7958 L176.8036,17.7958 C176.8036,18.0918 176.7396,18.3628 176.6116,18.6088 C176.4836,18.8558 176.3036,19.0698 176.0716,19.2528 C175.8396,19.4358 175.5586,19.5778 175.2286,19.6818 C174.8986,19.7848 174.5366,19.8368 174.1416,19.8368 L174.1416,19.8368 Z M169.8976,20.5318 L171.3026,20.5318 L171.3026,29.4798 L176.6116,20.5318 L178.3866,20.5318 L178.3866,31.0918 L176.9816,31.0918 L176.9816,22.1148 L171.6576,31.0918 L169.8976,31.0918 L169.8976,20.5318 Z" id="Fill-25" fill="#F04131"></path>
            <polygon id="Fill-27" fill="#FFFFFF" points="194.4658 10.2548 201.2238 10.2548 201.2238 22.5668 213.2348 10.2548 221.6718 10.2548 208.4128 23.1258 222.8338 40.9898 214.3538 40.9898 203.5058 27.3438 201.2238 29.7978 201.2238 40.9898 194.4658 40.9898"></polygon>
            <polygon id="Fill-29" fill="#FFFFFF" points="225.5449 10.2548 248.5319 10.2548 248.5319 15.9368 232.3029 15.9368 232.3029 22.5228 247.1969 22.5228 247.1969 27.7748 232.3029 27.7748 232.3029 35.3078 248.8769 35.3078 248.8769 40.9898 225.5449 40.9898"></polygon>
            <g id="Group-33" transform="translate(253.000000, 0.620000)">
                <mask id="mask-2" fill="white">
                    <use xlink:href="#path-1"></use>
                </mask>
                <g id="Clip-32"></g>
                <path d="M13.9126,7.0088 C8.3736,7.0088 5.6046,4.7998 5.6046,0.3798 L10.5986,0.3798 C10.6266,1.2698 10.8846,2.0018 11.3726,2.5748 C11.8606,3.1498 12.7076,3.4358 13.9126,3.4358 C15.1176,3.4358 15.9786,3.1558 16.4956,2.5968 C17.0116,2.0368 17.2556,1.2988 17.2266,0.3798 L22.2206,0.3798 C22.2206,4.7998 19.4506,7.0088 13.9126,7.0088 L13.9126,7.0088 Z M0.4386,9.6348 L7.1976,9.6348 L7.1976,30.9428 L7.3266,30.9428 L19.0356,9.6348 L26.6116,9.6348 L26.6116,40.3698 L19.8526,40.3698 L19.8526,19.0188 L19.7246,19.0188 L8.0156,40.3698 L0.4386,40.3698 L0.4386,9.6348 Z" id="Fill-31" fill="#FFFFFF" mask="url(#mask-2)"></path>
            </g>
            <path d="M299.2837,41.6791 C296.9017,41.6791 294.7777,41.2701 292.9127,40.4521 C291.0467,39.6341 289.4697,38.5081 288.1777,37.0731 C286.8867,35.6381 285.8957,33.9521 285.2077,32.0151 C284.5187,30.0781 284.1747,27.9901 284.1747,25.7511 C284.1747,23.4851 284.5187,21.3611 285.2077,19.3811 C285.8957,17.4001 286.8867,15.6791 288.1777,14.2151 C289.4697,12.7511 291.0467,11.6041 292.9127,10.7711 C294.7777,9.9391 296.9017,9.5231 299.2837,9.5231 C300.9477,9.5231 302.5407,9.7671 304.0617,10.2551 C305.5827,10.7431 306.9387,11.4531 308.1297,12.3861 C309.3207,13.3181 310.3037,14.4731 311.0787,15.8511 C311.8537,17.2281 312.3407,18.8071 312.5417,20.5861 L305.9987,20.5861 C305.8837,19.8111 305.6257,19.1011 305.2237,18.4551 C304.8217,17.8091 304.3207,17.2431 303.7177,16.7551 C303.1147,16.2671 302.4327,15.8871 301.6727,15.6141 C300.9117,15.3421 300.1157,15.2051 299.2837,15.2051 C297.7627,15.2051 296.4707,15.5001 295.4097,16.0881 C294.3477,16.6761 293.4867,17.4651 292.8267,18.4551 C292.1657,19.4451 291.6857,20.5721 291.3847,21.8341 C291.0837,23.0971 290.9327,24.4031 290.9327,25.7511 C290.9327,27.0431 291.0837,28.2991 291.3847,29.5181 C291.6857,30.7381 292.1657,31.8361 292.8267,32.8111 C293.4867,33.7871 294.3477,34.5691 295.4097,35.1571 C296.4707,35.7461 297.7627,36.0401 299.2837,36.0401 C301.3497,36.0401 302.9647,35.4091 304.1267,34.1461 C305.2887,32.8831 305.9987,31.2191 306.2577,29.1521 L312.8007,29.1521 C312.6287,31.1041 312.1827,32.8471 311.4657,34.3821 C310.7487,35.9181 309.8017,37.2311 308.6247,38.3211 C307.4477,39.4121 306.0707,40.2441 304.4917,40.8181 C302.9137,41.3911 301.1777,41.6791 299.2837,41.6791" id="Fill-34" fill="#FFFFFF"></path>
            <mask id="mask-4" fill="white">
                <use xlink:href="#path-3"></use>
            </mask>
            <g id="Clip-37"></g>
            <polygon id="Fill-36" fill="#FFFFFF" mask="url(#mask-4)" points="316.717 31.864 329.675 31.864 329.675 26.613 316.717 26.613"></polygon>
            <polygon id="Fill-38" fill="#FFFFFF" mask="url(#mask-4)" points="57.6318 87.6454 64.3898 87.6454 64.3898 112.6984 73.6888 112.6984 73.6888 87.6454 80.4468 87.6454 80.4468 112.6984 89.7448 112.6984 89.7448 87.6454 96.5028 87.6454 96.5028 118.3804 57.6318 118.3804"></polygon>
            <polygon id="Fill-39" fill="#FFFFFF" mask="url(#mask-4)" points="102.4429 87.6454 109.2009 87.6454 109.2009 99.9574 121.2119 87.6454 129.6489 87.6454 116.3899 100.5164 130.8109 118.3804 122.3309 118.3804 111.4829 104.7344 109.2009 107.1884 109.2009 118.3804 102.4429 118.3804"></polygon>
            <path d="M147.2969,113.4305 C148.8179,113.4305 150.1089,113.1365 151.1709,112.5475 C152.2329,111.9595 153.0929,111.1775 153.7539,110.2015 C154.4139,109.2265 154.8949,108.1285 155.1959,106.9085 C155.4979,105.6895 155.6479,104.4335 155.6479,103.1415 C155.6479,101.7935 155.4979,100.4885 155.1959,99.2245 C154.8949,97.9625 154.4139,96.8355 153.7539,95.8455 C153.0929,94.8555 152.2329,94.0665 151.1709,93.4785 C150.1089,92.8905 148.8179,92.5955 147.2969,92.5955 C145.7759,92.5955 144.4839,92.8905 143.4229,93.4785 C142.3609,94.0665 141.4999,94.8555 140.8399,95.8455 C140.1789,96.8355 139.6989,97.9625 139.3979,99.2245 C139.0969,100.4885 138.9459,101.7935 138.9459,103.1415 C138.9459,104.4335 139.0969,105.6895 139.3979,106.9085 C139.6989,108.1285 140.1789,109.2265 140.8399,110.2015 C141.4999,111.1775 142.3609,111.9595 143.4229,112.5475 C144.4839,113.1365 145.7759,113.4305 147.2969,113.4305 M147.2969,119.0695 C144.9149,119.0695 142.7909,118.6605 140.9259,117.8425 C139.0599,117.0245 137.4829,115.8985 136.1909,114.4635 C134.8999,113.0285 133.9089,111.3425 133.2209,109.4055 C132.5319,107.4685 132.1879,105.3805 132.1879,103.1415 C132.1879,100.8755 132.5319,98.7515 133.2209,96.7715 C133.9089,94.7905 134.8999,93.0695 136.1909,91.6055 C137.4829,90.1415 139.0599,88.9945 140.9259,88.1615 C142.7909,87.3295 144.9149,86.9135 147.2969,86.9135 C149.6499,86.9135 151.7669,87.3295 153.6469,88.1615 C155.5259,88.9945 157.1119,90.1415 158.4029,91.6055 C159.6939,93.0695 160.6849,94.7905 161.3729,96.7715 C162.0619,98.7515 162.4059,100.8755 162.4059,103.1415 C162.4059,105.3805 162.0619,107.4685 161.3729,109.4055 C160.6849,111.3425 159.6939,113.0285 158.4029,114.4635 C157.1119,115.8985 155.5259,117.0245 153.6469,117.8425 C151.7669,118.6605 149.6499,119.0695 147.2969,119.0695" id="Fill-40" fill="#FFFFFF" mask="url(#mask-4)"></path>
            <path d="M167.4858,118.725 C166.4238,118.725 165.4478,118.553 164.5588,118.208 L164.5588,112.699 C164.6728,112.756 164.8388,112.8 165.0538,112.828 C165.2688,112.857 165.4478,112.871 165.5918,112.871 C166.6818,112.871 167.5788,112.512 168.2818,111.795 C168.9848,111.078 169.5298,109.958 169.9178,108.437 C170.3048,106.916 170.5698,104.95 170.7148,102.539 C170.8578,100.129 170.9298,97.231 170.9298,93.844 L170.9298,87.645 L193.0988,87.645 L193.0988,118.381 L186.3398,118.381 L186.3398,93.328 L177.3428,93.328 C177.2568,96.886 177.1348,100.215 176.9778,103.314 C176.8188,106.414 176.4398,109.104 175.8368,111.386 C175.2348,113.667 174.2868,115.461 172.9958,116.767 C171.7038,118.073 169.8668,118.725 167.4858,118.725" id="Fill-41" fill="#FFFFFF" mask="url(#mask-4)"></path>
            <path d="M212.125,112.871 C213.761,112.871 215.037,112.541 215.956,111.881 C216.874,111.221 217.333,110.073 217.333,108.437 C217.333,107.634 217.205,106.952 216.946,106.392 C216.688,105.832 216.322,105.381 215.849,105.036 C215.375,104.692 214.815,104.441 214.169,104.283 C213.524,104.125 212.828,104.046 212.082,104.046 L205.754,104.046 L205.754,112.871 L212.125,112.871 Z M198.996,87.645 L205.754,87.645 L205.754,98.751 L212.986,98.751 C214.536,98.751 215.97,98.945 217.291,99.332 C218.61,99.72 219.758,100.316 220.734,101.119 C221.709,101.923 222.478,102.942 223.037,104.175 C223.597,105.41 223.876,106.859 223.876,108.523 C223.876,110.217 223.604,111.68 223.059,112.914 C222.513,114.148 221.746,115.174 220.756,115.992 C219.766,116.809 218.582,117.412 217.205,117.8 C215.827,118.187 214.306,118.381 212.642,118.381 L198.996,118.381 L198.996,87.645 Z" id="Fill-42" fill="#FFFFFF" mask="url(#mask-4)"></path>
            <polygon id="Fill-43" fill="#FFFFFF" mask="url(#mask-4)" points="228.1377 87.6454 234.8957 87.6454 234.8957 99.4404 247.3367 99.4404 247.3367 87.6454 254.0947 87.6454 254.0947 118.3804 247.3367 118.3804 247.3367 105.1224 234.8957 105.1224 234.8957 118.3804 228.1377 118.3804"></polygon>
            <polygon id="Fill-44" fill="#FFFFFF" mask="url(#mask-4)" points="260.0352 87.6454 266.7502 87.6454 266.7502 108.9534 266.8792 108.9534 278.5882 87.6454 286.1642 87.6454 286.1642 118.3804 279.4492 118.3804 279.4492 97.0294 279.3202 97.0294 267.6112 118.3804 260.0352 118.3804"></polygon>
            <polygon id="Fill-45" fill="#FFFFFF" mask="url(#mask-4)" points="292.105 87.6454 298.863 87.6454 298.863 99.9574 310.874 87.6454 319.311 87.6454 306.052 100.5164 320.473 118.3804 311.993 118.3804 301.145 104.7344 298.863 107.1884 298.863 118.3804 292.105 118.3804"></polygon>
            <path d="M336.959,113.4305 C338.48,113.4305 339.771,113.1365 340.833,112.5475 C341.895,111.9595 342.755,111.1775 343.416,110.2015 C344.076,109.2265 344.557,108.1285 344.858,106.9085 C345.16,105.6895 345.31,104.4335 345.31,103.1415 C345.31,101.7935 345.16,100.4885 344.858,99.2245 C344.557,97.9625 344.076,96.8355 343.416,95.8455 C342.755,94.8555 341.895,94.0665 340.833,93.4785 C339.771,92.8905 338.48,92.5955 336.959,92.5955 C335.438,92.5955 334.146,92.8905 333.085,93.4785 C332.023,94.0665 331.162,94.8555 330.502,95.8455 C329.841,96.8355 329.361,97.9625 329.06,99.2245 C328.759,100.4885 328.608,101.7935 328.608,103.1415 C328.608,104.4335 328.759,105.6895 329.06,106.9085 C329.361,108.1285 329.841,109.2265 330.502,110.2015 C331.162,111.1775 332.023,111.9595 333.085,112.5475 C334.146,113.1365 335.438,113.4305 336.959,113.4305 M336.959,119.0695 C334.577,119.0695 332.453,118.6605 330.588,117.8425 C328.722,117.0245 327.145,115.8985 325.853,114.4635 C324.562,113.0285 323.571,111.3425 322.883,109.4055 C322.194,107.4685 321.85,105.3805 321.85,103.1415 C321.85,100.8755 322.194,98.7515 322.883,96.7715 C323.571,94.7905 324.562,93.0695 325.853,91.6055 C327.145,90.1415 328.722,88.9945 330.588,88.1615 C332.453,87.3295 334.577,86.9135 336.959,86.9135 C339.312,86.9135 341.429,87.3295 343.309,88.1615 C345.188,88.9945 346.774,90.1415 348.065,91.6055 C349.356,93.0695 350.347,94.7905 351.035,96.7715 C351.724,98.7515 352.068,100.8755 352.068,103.1415 C352.068,105.3805 351.724,107.4685 351.035,109.4055 C350.347,111.3425 349.356,113.0285 348.065,114.4635 C346.774,115.8985 345.188,117.0245 343.309,117.8425 C341.429,118.6605 339.312,119.0695 336.959,119.0695" id="Fill-46" fill="#FFFFFF" mask="url(#mask-4)"></path>
            <path d="M370.6646,113.1293 C371.3246,113.1293 371.9566,113.0643 372.5586,112.9353 C373.1616,112.8063 373.6916,112.5913 374.1516,112.2893 C374.6096,111.9883 374.9766,111.5793 375.2486,111.0633 C375.5216,110.5463 375.6576,109.8863 375.6576,109.0833 C375.6576,107.5043 375.2126,106.3783 374.3236,105.7033 C373.4336,105.0293 372.2576,104.6913 370.7936,104.6913 L363.4326,104.6913 L363.4326,113.1293 L370.6646,113.1293 Z M370.2766,100.0863 C371.4826,100.0863 372.4726,99.7993 373.2476,99.2253 C374.0216,98.6513 374.4096,97.7183 374.4096,96.4273 C374.4096,95.7103 374.2806,95.1213 374.0216,94.6623 C373.7636,94.2033 373.4196,93.8443 372.9896,93.5863 C372.5586,93.3273 372.0636,93.1493 371.5036,93.0473 C370.9446,92.9473 370.3636,92.8973 369.7606,92.8973 L363.4326,92.8973 L363.4326,100.0863 L370.2766,100.0863 Z M356.6746,87.6453 L371.1386,87.6453 C372.6016,87.6453 373.9356,87.7743 375.1416,88.0323 C376.3466,88.2913 377.3796,88.7143 378.2406,89.3023 C379.1016,89.8913 379.7686,90.6733 380.2426,91.6493 C380.7156,92.6253 380.9526,93.8303 380.9526,95.2643 C380.9526,96.8143 380.6016,98.1063 379.8976,99.1393 C379.1946,100.1713 378.1546,101.0193 376.7776,101.6783 C378.6716,102.2243 380.0846,103.1783 381.0176,104.5413 C381.9496,105.9043 382.4166,107.5473 382.4166,109.4703 C382.4166,111.0203 382.1146,112.3613 381.5126,113.4953 C380.9096,114.6293 380.0986,115.5543 379.0806,116.2713 C378.0606,116.9893 376.8986,117.5203 375.5936,117.8643 C374.2876,118.2083 372.9456,118.3803 371.5686,118.3803 L356.6746,118.3803 L356.6746,87.6453 Z" id="Fill-47" fill="#FFFFFF" mask="url(#mask-4)"></path>
            <path d="M17.563,67.5551 C16.816,67.7271 15.913,67.9141 14.851,68.1151 C13.789,68.3161 12.684,68.4161 11.537,68.4161 C9.671,68.4161 8.021,68.2291 6.586,67.8561 C5.151,67.4841 3.946,66.8731 2.97,66.0271 C1.994,65.1801 1.255,64.0761 0.753,62.7121 C0.251,61.3491 0,59.6781 0,57.6971 L0,48.4851 L6.758,48.4851 L6.758,57.7831 C6.758,59.6491 7.28,60.9541 8.323,61.7011 C9.366,62.4471 10.717,62.8201 12.376,62.8201 C13.461,62.8201 14.476,62.7341 15.419,62.5611 C16.362,62.3891 17.077,62.2461 17.563,62.1311 L17.563,48.4851 L24.321,48.4851 L24.321,79.2211 L17.563,79.2211 L17.563,67.5551 Z" id="Fill-48" fill="#FFFFFF" mask="url(#mask-4)"></path>
            <polygon id="Fill-49" fill="#FFFFFF" mask="url(#mask-4)" points="30.3047 48.4852 53.2917 48.4852 53.2917 54.1672 37.0627 54.1672 37.0627 60.7532 51.9567 60.7532 51.9567 66.0052 37.0627 66.0052 37.0627 73.5382 53.6367 73.5382 53.6367 79.2202 30.3047 79.2202"></polygon>
            <polygon id="Fill-50" fill="#FFFFFF" mask="url(#mask-4)" points="58.1987 48.4852 67.7117 48.4852 74.9007 69.6212 74.9867 69.6212 81.7887 48.4852 91.3017 48.4852 91.3017 79.2202 84.9737 79.2202 84.9737 57.4392 84.8877 57.4392 77.3547 79.2202 72.1457 79.2202 64.6127 57.6542 64.5267 57.6542 64.5267 79.2202 58.1987 79.2202"></polygon>
            <polygon id="Fill-51" fill="#FFFFFF" mask="url(#mask-4)" points="97.2422 48.4852 122.8122 48.4852 122.8122 79.2202 116.0542 79.2202 116.0542 54.1672 104.0002 54.1672 104.0002 79.2202 97.2422 79.2202"></polygon>
            <polygon id="Fill-52" fill="#FFFFFF" mask="url(#mask-4)" points="128.752 48.4852 135.467 48.4852 135.467 69.7932 135.596 69.7932 147.305 48.4852 154.881 48.4852 154.881 79.2202 148.166 79.2202 148.166 57.8692 148.037 57.8692 136.328 79.2202 128.752 79.2202"></polygon>
            <path d="M174.5967,74.2704 C176.1177,74.2704 177.4087,73.9764 178.4707,73.3874 C179.5327,72.7994 180.3927,72.0174 181.0537,71.0414 C181.7137,70.0664 182.1947,68.9684 182.4957,67.7484 C182.7977,66.5294 182.9477,65.2734 182.9477,63.9814 C182.9477,62.6334 182.7977,61.3284 182.4957,60.0644 C182.1947,58.8024 181.7137,57.6754 181.0537,56.6854 C180.3927,55.6954 179.5327,54.9064 178.4707,54.3184 C177.4087,53.7304 176.1177,53.4354 174.5967,53.4354 C173.0757,53.4354 171.7837,53.7304 170.7227,54.3184 C169.6607,54.9064 168.7997,55.6954 168.1397,56.6854 C167.4787,57.6754 166.9987,58.8024 166.6977,60.0644 C166.3967,61.3284 166.2457,62.6334 166.2457,63.9814 C166.2457,65.2734 166.3967,66.5294 166.6977,67.7484 C166.9987,68.9684 167.4787,70.0664 168.1397,71.0414 C168.7997,72.0174 169.6607,72.7994 170.7227,73.3874 C171.7837,73.9764 173.0757,74.2704 174.5967,74.2704 M174.5967,79.9094 C172.2147,79.9094 170.0907,79.5004 168.2257,78.6824 C166.3597,77.8644 164.7827,76.7384 163.4907,75.3034 C162.1997,73.8684 161.2087,72.1824 160.5207,70.2454 C159.8317,68.3084 159.4877,66.2204 159.4877,63.9814 C159.4877,61.7154 159.8317,59.5914 160.5207,57.6114 C161.2087,55.6304 162.1997,53.9094 163.4907,52.4454 C164.7827,50.9814 166.3597,49.8344 168.2257,49.0014 C170.0907,48.1694 172.2147,47.7534 174.5967,47.7534 C176.9497,47.7534 179.0667,48.1694 180.9467,49.0014 C182.8257,49.8344 184.4117,50.9814 185.7027,52.4454 C186.9937,53.9094 187.9847,55.6304 188.6727,57.6114 C189.3617,59.5914 189.7057,61.7154 189.7057,63.9814 C189.7057,66.2204 189.3617,68.3084 188.6727,70.2454 C187.9847,72.1824 186.9937,73.8684 185.7027,75.3034 C184.4117,76.7384 182.8257,77.8644 180.9467,78.6824 C179.0667,79.5004 176.9497,79.9094 174.5967,79.9094" id="Fill-53" fill="#FFFFFF" mask="url(#mask-4)"></path>
            <polygon id="Fill-54" fill="#FFFFFF" mask="url(#mask-4)" points="194.312 48.4852 201.07 48.4852 201.07 60.2802 213.511 60.2802 213.511 48.4852 220.269 48.4852 220.269 79.2202 213.511 79.2202 213.511 65.9622 201.07 65.9622 201.07 79.2202 194.312 79.2202"></polygon>
            <path d="M241.9214,67.3397 L238.0474,56.0617 L237.9614,56.0617 L233.9584,67.3397 L241.9214,67.3397 Z M234.6034,48.4857 L241.5344,48.4857 L253.0274,79.2207 L246.0104,79.2207 L243.6864,72.3767 L232.1924,72.3767 L229.7824,79.2207 L222.9814,79.2207 L234.6034,48.4857 Z" id="Fill-55" fill="#FFFFFF" mask="url(#mask-4)"></path>
            <polygon id="Fill-56" fill="#FFFFFF" mask="url(#mask-4)" points="262.4976 54.1674 253.2856 54.1674 253.2856 48.4854 278.4676 48.4854 278.4676 54.1674 269.2556 54.1674 269.2556 79.2204 262.4976 79.2204"></polygon>
            <polygon id="Fill-57" fill="#F04131" mask="url(#mask-4)" points="165.3149 135.6952 173.5379 135.6952 173.5379 146.2552 172.1329 146.2552 172.1329 136.8782 166.7199 136.8782 166.7199 146.2552 165.3149 146.2552"></polygon>
            <path d="M180.311,145.3231 C180.952,145.3231 181.504,145.1971 181.967,144.9461 C182.431,144.6951 182.811,144.3621 183.106,143.9481 C183.402,143.5331 183.619,143.0681 183.757,142.5501 C183.895,142.0321 183.964,141.5071 183.964,140.9751 C183.964,140.4421 183.895,139.9171 183.757,139.4001 C183.619,138.8821 183.402,138.4161 183.106,138.0021 C182.811,137.5881 182.431,137.2551 181.967,137.0041 C181.504,136.7521 180.952,136.6271 180.311,136.6271 C179.67,136.6271 179.118,136.7521 178.654,137.0041 C178.191,137.2551 177.811,137.5881 177.516,138.0021 C177.22,138.4161 177.003,138.8821 176.865,139.4001 C176.727,139.9171 176.658,140.4421 176.658,140.9751 C176.658,141.5071 176.727,142.0321 176.865,142.5501 C177.003,143.0681 177.22,143.5331 177.516,143.9481 C177.811,144.3621 178.191,144.6951 178.654,144.9461 C179.118,145.1971 179.67,145.3231 180.311,145.3231 M180.311,146.4911 C179.473,146.4911 178.738,146.3411 178.107,146.0401 C177.476,145.7401 176.949,145.3331 176.525,144.8201 C176.101,144.3071 175.783,143.7211 175.571,143.0601 C175.359,142.4001 175.253,141.7041 175.253,140.9751 C175.253,140.2551 175.359,139.5621 175.571,138.8971 C175.783,138.2311 176.101,137.6421 176.525,137.1301 C176.949,136.6171 177.476,136.2081 178.107,135.9021 C178.738,135.5961 179.473,135.4441 180.311,135.4441 C181.149,135.4441 181.883,135.5961 182.515,135.9021 C183.145,136.2081 183.673,136.6171 184.097,137.1301 C184.521,137.6421 184.839,138.2311 185.051,138.8971 C185.263,139.5621 185.369,140.2551 185.369,140.9751 C185.369,141.7041 185.263,142.4001 185.051,143.0601 C184.839,143.7211 184.521,144.3071 184.097,144.8201 C183.673,145.3331 183.145,145.7401 182.515,146.0401 C181.883,146.3411 181.149,146.4911 180.311,146.4911" id="Fill-58" fill="#F04131" mask="url(#mask-4)"></path>
            <path d="M195.2183,146.4916 C193.9463,146.4916 192.9013,146.1656 192.0833,145.5156 C191.2643,144.8646 190.7713,143.8886 190.6043,142.5866 L192.0243,142.5866 C192.1813,143.4846 192.5293,144.1696 193.0663,144.6426 C193.6033,145.1166 194.3013,145.3526 195.1593,145.3526 C195.7013,145.3526 196.1873,145.2566 196.6153,145.0646 C197.0453,144.8716 197.4093,144.6036 197.7103,144.2586 C198.0103,143.9126 198.2473,143.4986 198.4203,143.0156 C198.5933,142.5336 198.6943,142.0006 198.7233,141.4186 L193.7983,141.4186 L193.7983,140.2506 L198.6643,140.2506 C198.6053,139.7766 198.4913,139.3216 198.3243,138.8826 C198.1563,138.4436 197.9323,138.0536 197.6513,137.7136 C197.3703,137.3736 197.0253,137.1026 196.6153,136.9006 C196.2063,136.6986 195.7313,136.5966 195.1893,136.5966 C194.8043,136.5966 194.4423,136.6466 194.1013,136.7446 C193.7613,136.8436 193.4583,136.9866 193.1923,137.1746 C192.9263,137.3616 192.6993,137.5886 192.5113,137.8546 C192.3243,138.1206 192.1863,138.4166 192.0973,138.7416 L190.7073,138.7416 C190.7763,138.1996 190.9513,137.7206 191.2323,137.3066 C191.5133,136.8926 191.8613,136.5486 192.2753,136.2716 C192.6893,135.9956 193.1453,135.7886 193.6433,135.6506 C194.1413,135.5126 194.6463,135.4436 195.1593,135.4436 C195.9873,135.4436 196.7123,135.5916 197.3333,135.8876 C197.9543,136.1826 198.4693,136.5826 198.8793,137.0856 C199.2873,137.5886 199.5933,138.1776 199.7963,138.8526 C199.9973,139.5286 200.0983,140.2406 200.0983,140.9896 C200.0983,141.8576 199.9753,142.6316 199.7293,143.3116 C199.4823,143.9916 199.1423,144.5686 198.7083,145.0416 C198.2743,145.5156 197.7603,145.8756 197.1633,146.1216 C196.5663,146.3676 195.9183,146.4916 195.2183,146.4916" id="Fill-59" fill="#F04131" mask="url(#mask-4)"></path>
            <polygon id="Fill-60" fill="#F04131" mask="url(#mask-4)" points="201.8145 135.6952 203.2195 135.6952 203.2195 140.8122 208.5735 135.6952 210.3925 135.6952 205.3635 140.3982 210.5695 146.2552 208.7945 146.2552 204.2985 141.2562 203.2195 142.2612 203.2195 146.2552 201.8145 146.2552"></polygon>
            <path d="M216.145,145.3231 C216.786,145.3231 217.338,145.1971 217.801,144.9461 C218.265,144.6951 218.645,144.3621 218.94,143.9481 C219.236,143.5331 219.453,143.0681 219.591,142.5501 C219.729,142.0321 219.798,141.5071 219.798,140.9751 C219.798,140.4421 219.729,139.9171 219.591,139.4001 C219.453,138.8821 219.236,138.4161 218.94,138.0021 C218.645,137.5881 218.265,137.2551 217.801,137.0041 C217.338,136.7521 216.786,136.6271 216.145,136.6271 C215.504,136.6271 214.952,136.7521 214.488,137.0041 C214.025,137.2551 213.645,137.5881 213.35,138.0021 C213.054,138.4161 212.837,138.8821 212.699,139.4001 C212.561,139.9171 212.492,140.4421 212.492,140.9751 C212.492,141.5071 212.561,142.0321 212.699,142.5501 C212.837,143.0681 213.054,143.5331 213.35,143.9481 C213.645,144.3621 214.025,144.6951 214.488,144.9461 C214.952,145.1971 215.504,145.3231 216.145,145.3231 M216.145,146.4911 C215.307,146.4911 214.572,146.3411 213.941,146.0401 C213.31,145.7401 212.783,145.3331 212.359,144.8201 C211.935,144.3071 211.617,143.7211 211.405,143.0601 C211.193,142.4001 211.087,141.7041 211.087,140.9751 C211.087,140.2551 211.193,139.5621 211.405,138.8971 C211.617,138.2311 211.935,137.6421 212.359,137.1301 C212.783,136.6171 213.31,136.2081 213.941,135.9021 C214.572,135.5961 215.307,135.4441 216.145,135.4441 C216.983,135.4441 217.717,135.5961 218.349,135.9021 C218.979,136.2081 219.507,136.6171 219.931,137.1301 C220.355,137.6421 220.673,138.2311 220.885,138.8971 C221.097,139.5621 221.203,140.2551 221.203,140.9751 C221.203,141.7041 221.097,142.4001 220.885,143.0601 C220.673,143.7211 220.355,144.3071 219.931,144.8201 C219.507,145.3331 218.979,145.7401 218.349,146.0401 C217.717,146.3411 216.983,146.4911 216.145,146.4911" id="Fill-61" fill="#F04131" mask="url(#mask-4)"></path>
            <polygon id="Fill-62" fill="#F04131" mask="url(#mask-4)" points="222.9185 135.6952 224.3235 135.6952 224.3235 140.2352 229.8845 140.2352 229.8845 135.6952 231.2895 135.6952 231.2895 146.2552 229.8845 146.2552 229.8845 141.4192 224.3235 141.4192 224.3235 146.2552 222.9185 146.2552"></polygon>
            <path d="M238.0625,145.3231 C238.7035,145.3231 239.2555,145.1971 239.7185,144.9461 C240.1825,144.6951 240.5625,144.3621 240.8575,143.9481 C241.1535,143.5331 241.3705,143.0681 241.5085,142.5501 C241.6465,142.0321 241.7155,141.5071 241.7155,140.9751 C241.7155,140.4421 241.6465,139.9171 241.5085,139.4001 C241.3705,138.8821 241.1535,138.4161 240.8575,138.0021 C240.5625,137.5881 240.1825,137.2551 239.7185,137.0041 C239.2555,136.7521 238.7035,136.6271 238.0625,136.6271 C237.4215,136.6271 236.8695,136.7521 236.4055,137.0041 C235.9425,137.2551 235.5625,137.5881 235.2675,138.0021 C234.9715,138.4161 234.7545,138.8821 234.6165,139.4001 C234.4785,139.9171 234.4095,140.4421 234.4095,140.9751 C234.4095,141.5071 234.4785,142.0321 234.6165,142.5501 C234.7545,143.0681 234.9715,143.5331 235.2675,143.9481 C235.5625,144.3621 235.9425,144.6951 236.4055,144.9461 C236.8695,145.1971 237.4215,145.3231 238.0625,145.3231 M238.0625,146.4911 C237.2245,146.4911 236.4895,146.3411 235.8585,146.0401 C235.2275,145.7401 234.7005,145.3331 234.2765,144.8201 C233.8525,144.3071 233.5345,143.7211 233.3225,143.0601 C233.1105,142.4001 233.0045,141.7041 233.0045,140.9751 C233.0045,140.2551 233.1105,139.5621 233.3225,138.8971 C233.5345,138.2311 233.8525,137.6421 234.2765,137.1301 C234.7005,136.6171 235.2275,136.2081 235.8585,135.9021 C236.4895,135.5961 237.2245,135.4441 238.0625,135.4441 C238.9005,135.4441 239.6345,135.5961 240.2665,135.9021 C240.8965,136.2081 241.4245,136.6171 241.8485,137.1301 C242.2725,137.6421 242.5905,138.2311 242.8025,138.8971 C243.0145,139.5621 243.1205,140.2551 243.1205,140.9751 C243.1205,141.7041 243.0145,142.4001 242.8025,143.0601 C242.5905,143.7211 242.2725,144.3071 241.8485,144.8201 C241.4245,145.3331 240.8965,145.7401 240.2665,146.0401 C239.6345,146.3411 238.9005,146.4911 238.0625,146.4911" id="Fill-63" fill="#F04131" mask="url(#mask-4)"></path>
            <polygon id="Fill-64" fill="#F04131" mask="url(#mask-4)" points="244.8652 135.6952 246.7882 135.6952 250.1152 144.5692 253.4582 135.6952 255.3802 135.6952 255.3802 146.2552 254.0492 146.2552 254.0492 137.4692 254.0202 137.4692 250.7212 146.2552 249.5242 146.2552 246.2262 137.4692 246.1962 137.4692 246.1962 146.2552 244.8652 146.2552"></polygon>
            <polygon id="Fill-65" fill="#F04131" mask="url(#mask-4)" points="257.7173 135.6952 259.1223 135.6952 259.1223 144.6432 264.4313 135.6952 266.2063 135.6952 266.2063 146.2552 264.8013 146.2552 264.8013 137.2782 259.4773 146.2552 257.7173 146.2552"></polygon>
            <polygon id="Fill-66" fill="#F04131" mask="url(#mask-4)" points="268.5137 135.6952 269.9187 135.6952 269.9187 140.8122 275.2727 135.6952 277.0917 135.6952 272.0627 140.3982 277.2687 146.2552 275.4937 146.2552 270.9977 141.2562 269.9187 142.2612 269.9187 146.2552 268.5137 146.2552"></polygon>
            <polygon id="Fill-67" fill="#F04131" mask="url(#mask-4)" points="278.3779 135.6952 285.6689 135.6952 285.6689 136.8782 279.7829 136.8782 279.7829 140.2352 285.2699 140.2352 285.2699 141.4192 279.7829 141.4192 279.7829 145.0712 285.7129 145.0712 285.7129 146.2552 278.3779 146.2552"></polygon>
            <polygon id="Fill-68" fill="#F04131" mask="url(#mask-4)" points="165.3149 153.4428 166.7199 153.4428 166.7199 162.3908 172.0289 153.4428 173.8039 153.4428 173.8039 164.0028 172.3989 164.0028 172.3989 155.0258 167.0749 164.0028 165.3149 164.0028"></polygon>
            <polygon id="Fill-69" fill="#F04131" mask="url(#mask-4)" points="180.2227 153.4428 188.4457 153.4428 188.4457 164.0028 187.0407 164.0028 187.0407 154.6258 181.6277 154.6258 181.6277 164.0028 180.2227 164.0028"></polygon>
            <path d="M194.9082,158.5009 C195.7062,158.5009 196.2912,158.3359 196.6602,158.0049 C197.0302,157.6749 197.2152,157.1939 197.2152,156.5639 C197.2152,155.9329 197.0302,155.4519 196.6602,155.1219 C196.2912,154.7909 195.7062,154.6259 194.9082,154.6259 L192.1572,154.6259 L192.1572,158.5009 L194.9082,158.5009 Z M190.7522,153.4429 L195.3812,153.4429 C196.4562,153.4429 197.2642,153.7159 197.8062,154.2639 C198.3492,154.8109 198.6202,155.5779 198.6202,156.5639 C198.6202,157.5489 198.3492,158.3159 197.8062,158.8629 C197.2642,159.4099 196.4562,159.6839 195.3812,159.6839 L192.1572,159.6839 L192.1572,164.0019 L190.7522,164.0019 L190.7522,153.4429 Z" id="Fill-70" fill="#F04131" mask="url(#mask-4)"></path>
            <polygon id="Fill-71" fill="#F04131" mask="url(#mask-4)" points="200.3359 153.4428 207.6269 153.4428 207.6269 154.6258 201.7409 154.6258 201.7409 157.9828 207.2279 157.9828 207.2279 159.1668 201.7409 159.1668 201.7409 162.8188 207.6709 162.8188 207.6709 164.0028 200.3359 164.0028"></polygon>
            <path d="M216.1602,162.8192 L216.1602,154.6262 L212.1222,154.6262 L212.1222,156.1492 C212.1222,156.7992 212.0902,157.4532 212.0262,158.1092 C211.9622,158.7642 211.8732,159.3852 211.7602,159.9722 C211.6472,160.5592 211.5182,161.0982 211.3762,161.5912 C211.2332,162.0852 211.0822,162.4942 210.9252,162.8192 L216.1602,162.8192 Z M208.3512,162.8192 L209.3872,162.8192 C209.5842,162.4642 209.7662,162.0202 209.9342,161.4882 C210.1012,160.9552 210.2462,160.3712 210.3702,159.7362 C210.4932,159.0992 210.5892,158.4242 210.6592,157.7092 C210.7272,156.9942 210.7622,156.2722 210.7622,155.5432 L210.7622,153.4432 L217.5652,153.4432 L217.5652,162.8192 L218.7332,162.8192 L218.7332,166.6202 L217.3882,166.6202 L217.3882,164.0022 L209.6972,164.0022 L209.6972,166.6202 L208.3512,166.6202 L208.3512,162.8192 Z" id="Fill-72" fill="#F04131" mask="url(#mask-4)"></path>
            <polygon id="Fill-73" fill="#F04131" mask="url(#mask-4)" points="220.1533 153.4428 228.3763 153.4428 228.3763 164.0028 226.9713 164.0028 226.9713 154.6258 221.5583 154.6258 221.5583 164.0028 220.1533 164.0028"></polygon>
            <path d="M234.8389,158.5009 C235.6369,158.5009 236.2219,158.3359 236.5909,158.0049 C236.9609,157.6749 237.1459,157.1939 237.1459,156.5639 C237.1459,155.9329 236.9609,155.4519 236.5909,155.1219 C236.2219,154.7909 235.6369,154.6259 234.8389,154.6259 L232.0879,154.6259 L232.0879,158.5009 L234.8389,158.5009 Z M230.6829,153.4429 L235.3119,153.4429 C236.3869,153.4429 237.1949,153.7159 237.7369,154.2639 C238.2799,154.8109 238.5509,155.5779 238.5509,156.5639 C238.5509,157.5489 238.2799,158.3159 237.7369,158.8629 C237.1949,159.4099 236.3869,159.6839 235.3119,159.6839 L232.0879,159.6839 L232.0879,164.0019 L230.6829,164.0019 L230.6829,153.4429 Z" id="Fill-74" fill="#F04131" mask="url(#mask-4)"></path>
            <polygon id="Fill-75" fill="#F04131" mask="url(#mask-4)" points="240.2666 153.4428 241.6716 153.4428 241.6716 162.3908 246.9806 153.4428 248.7556 153.4428 248.7556 164.0028 247.3506 164.0028 247.3506 155.0258 242.0266 164.0028 240.2666 164.0028"></polygon>
            <polygon id="Fill-76" fill="#F04131" mask="url(#mask-4)" points="251.063 153.4428 252.468 153.4428 252.468 157.9828 258.029 157.9828 258.029 153.4428 259.434 153.4428 259.434 164.0028 258.029 164.0028 258.029 159.1668 252.468 159.1668 252.468 164.0028 251.063 164.0028"></polygon>
            <polygon id="Fill-77" fill="#F04131" mask="url(#mask-4)" points="261.7407 153.4428 263.1457 153.4428 263.1457 162.3908 268.4547 153.4428 270.2297 153.4428 270.2297 164.0028 268.8247 164.0028 268.8247 155.0258 263.5007 164.0028 261.7407 164.0028"></polygon>
            <polygon id="Fill-78" fill="#F04131" mask="url(#mask-4)" points="272.5664 153.4428 274.4894 153.4428 277.8164 162.3168 281.1594 153.4428 283.0814 153.4428 283.0814 164.0028 281.7504 164.0028 281.7504 155.2168 281.7214 155.2168 278.4224 164.0028 277.2254 164.0028 273.9274 155.2168 273.8974 155.2168 273.8974 164.0028 272.5664 164.0028"></polygon>
            <path d="M290.8164,159.6395 L289.0564,154.7145 L289.0264,154.7145 L287.2374,159.6395 L290.8164,159.6395 Z M288.2874,153.4425 L289.8404,153.4425 L293.9664,164.0025 L292.4134,164.0025 L291.2604,160.8225 L286.7934,160.8225 L285.6104,164.0025 L284.1754,164.0025 L288.2874,153.4425 Z" id="Fill-79" fill="#F04131" mask="url(#mask-4)"></path>
            <polygon id="Fill-80" fill="#F04131" mask="url(#mask-4)" points="297.3975 154.6259 293.8775 154.6259 293.8775 153.4429 302.3225 153.4429 302.3225 154.6259 298.8025 154.6259 298.8025 164.0019 297.3975 164.0019"></polygon>
            <polygon id="Fill-81" fill="#F04131" mask="url(#mask-4)" points="303.4907 153.4428 310.7817 153.4428 310.7817 154.6258 304.8957 154.6258 304.8957 157.9828 310.3827 157.9828 310.3827 159.1668 304.8957 159.1668 304.8957 162.8188 310.8257 162.8188 310.8257 164.0028 303.4907 164.0028"></polygon>
            <path d="M312.3789,164.1503 C312.2309,164.1503 312.0759,164.1373 311.9129,164.1133 C311.7499,164.0883 311.6189,164.0513 311.5209,164.0023 L311.5209,162.7303 C311.7079,162.7893 311.9099,162.8193 312.1279,162.8193 C312.5709,162.8193 312.9189,162.5893 313.1699,162.1313 C313.4209,161.6733 313.6069,161.0293 313.7249,160.2013 C313.8429,159.3733 313.9169,158.3843 313.9459,157.2363 C313.9759,156.0873 313.9909,154.8233 313.9909,153.4423 L320.6169,153.4423 L320.6169,164.0023 L319.2119,164.0023 L319.2119,154.6263 L315.3659,154.6263 C315.3569,155.4633 315.3389,156.2793 315.3149,157.0733 C315.2899,157.8673 315.2449,158.6163 315.1809,159.3213 C315.1169,160.0263 315.0209,160.6743 314.8929,161.2663 C314.7649,161.8583 314.5919,162.3683 314.3759,162.7963 C314.1579,163.2263 313.8869,163.5583 313.5619,163.7953 C313.2359,164.0323 312.8419,164.1503 312.3789,164.1503" id="Fill-82" fill="#F04131" mask="url(#mask-4)"></path>
            <path d="M327.1533,162.8192 C328.6913,162.8192 329.4603,162.1732 329.4603,160.8822 C329.4603,159.5702 328.6913,158.9152 327.1533,158.9152 L324.3283,158.9152 L324.3283,162.8192 L327.1533,162.8192 Z M322.9243,153.4432 L324.3283,153.4432 L324.3283,157.7462 L327.6263,157.7462 C328.6713,157.7462 329.4723,158.0152 330.0293,158.5522 C330.5873,159.0902 330.8653,159.8662 330.8653,160.8822 C330.8653,161.8872 330.5873,162.6592 330.0293,163.1962 C329.4723,163.7342 328.6713,164.0022 327.6263,164.0022 L322.9243,164.0022 L322.9243,153.4432 Z" id="Fill-83" fill="#F04131" mask="url(#mask-4)"></path>
            <path d="M336.9443,164.2391 C336.1253,164.2391 335.4113,164.0981 334.7993,163.8171 C334.1883,163.5361 333.6803,163.1501 333.2763,162.6561 C332.8723,162.1631 332.5693,161.5821 332.3663,160.9111 C332.1643,160.2411 332.0633,159.5211 332.0633,158.7521 C332.0633,157.9831 332.1723,157.2601 332.3893,156.5851 C332.6063,155.9101 332.9233,155.3211 333.3423,154.8181 C333.7613,154.3151 334.2823,153.9181 334.9033,153.6271 C335.5243,153.3371 336.2443,153.1911 337.0623,153.1911 C337.6143,153.1911 338.1373,153.2651 338.6303,153.4131 C339.1233,153.5611 339.5623,153.7781 339.9463,154.0641 C340.3313,154.3501 340.6513,154.7071 340.9073,155.1361 C341.1643,155.5651 341.3313,156.0601 341.4103,156.6221 L340.0063,156.6221 C339.8473,155.8731 339.5003,155.3111 338.9633,154.9361 C338.4253,154.5621 337.7873,154.3741 337.0483,154.3741 C336.4163,154.3741 335.8773,154.4921 335.4283,154.7291 C334.9793,154.9661 334.6103,155.2841 334.3193,155.6831 C334.0283,156.0821 333.8133,156.5391 333.6753,157.0511 C333.5373,157.5641 333.4683,158.0961 333.4683,158.6481 C333.4683,159.2501 333.5373,159.8191 333.6753,160.3571 C333.8133,160.8941 334.0283,161.3621 334.3193,161.7611 C334.6103,162.1611 334.9823,162.4791 335.4353,162.7161 C335.8893,162.9521 336.4313,163.0711 337.0623,163.0711 C337.5163,163.0711 337.9253,162.9941 338.2903,162.8411 C338.6543,162.6881 338.9673,162.4771 339.2293,162.2051 C339.4903,161.9341 339.6943,161.6121 339.8423,161.2371 C339.9903,160.8621 340.0793,160.4581 340.1093,160.0241 L341.5143,160.0241 C341.3763,161.3651 340.9203,162.4031 340.1463,163.1371 C339.3723,163.8721 338.3043,164.2391 336.9443,164.2391" id="Fill-84" fill="#F04131" mask="url(#mask-4)"></path>
            <polygon id="Fill-85" fill="#F04131" mask="url(#mask-4)" points="345.6548 154.6259 342.1348 154.6259 342.1348 153.4429 350.5798 153.4429 350.5798 154.6259 347.0598 154.6259 347.0598 164.0019 345.6548 164.0019"></polygon>
            <path d="M356.6729,162.8192 C357.2939,162.8192 357.7789,162.6522 358.1299,162.3162 C358.4799,161.9812 358.6539,161.5172 358.6539,160.9262 C358.6539,160.5812 358.5899,160.2952 358.4629,160.0682 C358.3339,159.8412 358.1639,159.6612 357.9519,159.5282 C357.7399,159.3952 357.4959,159.3012 357.2199,159.2472 C356.9439,159.1932 356.6579,159.1662 356.3619,159.1662 L353.1529,159.1662 L353.1529,162.8192 L356.6729,162.8192 Z M355.9629,157.9832 C356.7609,157.9832 357.3359,157.8422 357.6859,157.5612 C358.0359,157.2802 358.2109,156.8592 358.2109,156.2972 C358.2109,155.9322 358.1519,155.6392 358.0329,155.4172 C357.9149,155.1952 357.7529,155.0252 357.5459,154.9062 C357.3389,154.7882 357.0989,154.7122 356.8279,154.6772 C356.5569,154.6432 356.2689,154.6262 355.9629,154.6262 L353.1529,154.6262 L353.1529,157.9832 L355.9629,157.9832 Z M351.7479,153.4432 L355.5779,153.4432 C355.8049,153.4432 356.0489,153.4452 356.3109,153.4502 C356.5709,153.4552 356.8299,153.4702 357.0869,153.4942 C357.3429,153.5192 357.5849,153.5562 357.8119,153.6052 C358.0379,153.6542 358.2259,153.7292 358.3739,153.8272 C358.7189,154.0342 359.0119,154.3202 359.2539,154.6852 C359.4949,155.0492 359.6159,155.4982 359.6159,156.0302 C359.6159,156.5922 359.4799,157.0782 359.2089,157.4872 C358.9379,157.8972 358.5509,158.2002 358.0479,158.3972 L358.0479,158.4262 C358.6989,158.5652 359.1969,158.8612 359.5419,159.3142 C359.8869,159.7672 360.0599,160.3192 360.0599,160.9702 C360.0599,161.3552 359.9899,161.7302 359.8529,162.0942 C359.7149,162.4592 359.5099,162.7822 359.2389,163.0632 C358.9669,163.3442 358.6319,163.5712 358.2329,163.7432 C357.8339,163.9162 357.3729,164.0022 356.8499,164.0022 L351.7479,164.0022 L351.7479,153.4432 Z" id="Fill-86" fill="#F04131" mask="url(#mask-4)"></path>
            <path d="M363.417,164.1649 C363.249,164.1649 363.084,164.1479 362.921,164.1129 C362.759,164.0789 362.623,164.0369 362.515,163.9879 L362.515,162.7299 C362.643,162.7899 362.773,162.8359 362.907,162.8709 C363.04,162.9059 363.19,162.9229 363.357,162.9229 C363.624,162.9229 363.875,162.8289 364.112,162.6419 C364.349,162.4549 364.556,162.1739 364.733,161.7989 L364.911,161.4289 L360.74,153.4429 L362.263,153.4429 L365.65,160.0539 L368.283,153.4429 L369.776,153.4429 L366.227,161.6059 C366.02,162.0999 365.808,162.5089 365.591,162.8339 C365.374,163.1599 365.152,163.4209 364.925,163.6179 C364.698,163.8149 364.459,163.9559 364.208,164.0399 C363.957,164.1229 363.693,164.1649 363.417,164.1649" id="Fill-87" fill="#F04131" mask="url(#mask-4)"></path>
        </g>
    </g>
</svg>