<svg enable-background="new 0 0 1710 1080" viewBox="0 0 1710 1080" xmlns="http://www.w3.org/2000/svg" xmlns:xlink="http://www.w3.org/1999/xlink"><linearGradient id="a"><stop offset="0" stop-color="#c49a6b"/><stop offset=".0483" stop-color="#c89f6e"/><stop offset=".1016" stop-color="#d5ac78"/><stop offset=".1571" stop-color="#eac287"/><stop offset=".1929" stop-color="#fcd494"/><stop offset=".3505" stop-color="#d4aa76"/><stop offset=".4313" stop-color="#c49a6b"/><stop offset=".5826" stop-color="#99744f"/><stop offset=".7725" stop-color="#694930"/><stop offset=".9178" stop-color="#4b2e1c"/><stop offset="1" stop-color="#402415"/></linearGradient><linearGradient id="b" gradientUnits="userSpaceOnUse" x1="174.1014" x2="1324.6376" xlink:href="#a" y1="497.4816" y2="1755.8805"/><linearGradient id="c" gradientUnits="userSpaceOnUse" x1="299.5208" x2="1450.057" xlink:href="#a" y1="382.8124" y2="1641.2113"/><linearGradient id="d" gradientUnits="userSpaceOnUse" x1="421.0821" x2="1571.6183" xlink:href="#a" y1="271.6707" y2="1530.0696"/><linearGradient id="e" gradientUnits="userSpaceOnUse" x1="537.1795" x2="1687.7157" xlink:href="#a" y1="165.5245" y2="1423.9235"/><linearGradient id="f" gradientUnits="userSpaceOnUse" x1="655.2463" x2="1805.7825" xlink:href="#a" y1="57.5777" y2="1315.9766"/><linearGradient id="g" gradientUnits="userSpaceOnUse" x1="759.6041" x2="1910.1403" xlink:href="#a" y1="-37.8352" y2="1220.5637"/><linearGradient id="h" gradientUnits="userSpaceOnUse" x1="222.9457" x2="1373.4818" xlink:href="#a" y1="470.3269" y2="1728.7258"/><linearGradient id="i" gradientUnits="userSpaceOnUse" x1="252.2234" x2="1402.7596" xlink:href="#a" y1="443.5587" y2="1701.9576"/><linearGradient id="j" gradientUnits="userSpaceOnUse" x1="274.9135" x2="1425.4496" xlink:href="#a" y1="422.8135" y2="1681.2124"/><linearGradient id="k" gradientUnits="userSpaceOnUse" x1="294.1087" x2="1444.6448" xlink:href="#a" y1="405.2636" y2="1663.6625"/><linearGradient id="l" gradientUnits="userSpaceOnUse" x1="322.3793" x2="1472.9155" xlink:href="#a" y1="379.4161" y2="1637.8151"/><linearGradient id="m" gradientUnits="userSpaceOnUse" x1="353.1156" x2="1503.6517" xlink:href="#a" y1="351.3144" y2="1609.7134"/><linearGradient id="n" gradientUnits="userSpaceOnUse" x1="400.4349" x2="1550.9711" xlink:href="#a" y1="351.3144" y2="1609.7134"/><linearGradient id="o" gradientUnits="userSpaceOnUse" x1="426.1272" x2="1576.6633" xlink:href="#a" y1="326.0593" y2="1584.4583"/><linearGradient id="p" gradientUnits="userSpaceOnUse" x1="456.6352" x2="1607.1714" xlink:href="#a" y1="298.1663" y2="1556.5652"/><linearGradient id="q" gradientUnits="userSpaceOnUse" x1="485.9954" x2="1636.5316" xlink:href="#a" y1="271.3227" y2="1529.7216"/><linearGradient id="r" gradientUnits="userSpaceOnUse" x1="510.7712" x2="1661.3074" xlink:href="#a" y1="248.6705" y2="1507.0693"/><linearGradient id="s" gradientUnits="userSpaceOnUse" x1="531.7823" x2="1682.3185" xlink:href="#a" y1="229.4603" y2="1487.8593"/><linearGradient id="t" gradientUnits="userSpaceOnUse" x1="563.4615" x2="1713.9977" xlink:href="#a" y1="200.4965" y2="1458.8954"/><linearGradient id="u" gradientUnits="userSpaceOnUse" x1="193.6633" x2="1344.1995" xlink:href="#a" y1="497.0994" y2="1755.4983"/><linearGradient id="v" gradientUnits="userSpaceOnUse" x1="221.472" x2="1372.0081" xlink:href="#a" y1="471.6743" y2="1730.0732"/><linearGradient id="w" gradientUnits="userSpaceOnUse" x1="251.4951" x2="1402.0312" xlink:href="#a" y1="444.2245" y2="1702.6234"/><linearGradient id="x" gradientUnits="userSpaceOnUse" x1="281.7251" x2="1432.2612" xlink:href="#a" y1="416.5858" y2="1674.9846"/><linearGradient id="y" gradientUnits="userSpaceOnUse" x1="317.5644" x2="1468.1006" xlink:href="#a" y1="383.8184" y2="1642.2173"/><linearGradient id="z" gradientUnits="userSpaceOnUse" x1="348.2457" x2="1498.7819" xlink:href="#a" y1="355.7669" y2="1614.1659"/><linearGradient id="A" gradientUnits="userSpaceOnUse" x1="370.9654" x2="1521.5016" xlink:href="#a" y1="334.9946" y2="1593.3936"/><linearGradient id="B" gradientUnits="userSpaceOnUse" x1="402.1962" x2="1552.7323" xlink:href="#a" y1="306.4407" y2="1564.8396"/><linearGradient id="C" gradientUnits="userSpaceOnUse" x1="428.0372" x2="1578.5734" xlink:href="#a" y1="282.8147" y2="1541.2136"/><linearGradient id="D" gradientUnits="userSpaceOnUse" x1="477.5225" x2="1628.0587" xlink:href="#a" y1="237.5709" y2="1495.9698"/><linearGradient id="E" gradientUnits="userSpaceOnUse" x1="509.9886" x2="1660.5248" xlink:href="#a" y1="207.8877" y2="1466.2866"/><linearGradient id="F" gradientUnits="userSpaceOnUse" x1="536.7344" x2="1687.2706" xlink:href="#a" y1="183.4343" y2="1441.8333"/><linearGradient id="G" gradientUnits="userSpaceOnUse" x1="564.5436" x2="1715.0798" xlink:href="#a" y1="158.0087" y2="1416.4077"/><linearGradient id="H" gradientUnits="userSpaceOnUse" x1="585.6057" x2="1736.1418" xlink:href="#a" y1="138.752" y2="1397.1509"/><linearGradient id="I" gradientUnits="userSpaceOnUse" x1="616.4384" x2="1766.9745" xlink:href="#a" y1="110.5622" y2="1368.9611"/><linearGradient id="J" gradientUnits="userSpaceOnUse" x1="647.1206" x2="1797.6567" xlink:href="#a" y1="82.5098" y2="1340.9087"/><linearGradient id="K" gradientUnits="userSpaceOnUse" x1="674.3902" x2="1824.9264" xlink:href="#a" y1="57.5776" y2="1315.9766"/><linearGradient id="L" gradientUnits="userSpaceOnUse" x1="701.1361" x2="1851.6722" xlink:href="#a" y1="33.1243" y2="1291.5232"/><linearGradient id="M" gradientUnits="userSpaceOnUse" x1="724.093" x2="1874.6292" xlink:href="#a" y1="12.1351" y2="1270.5339"/><linearGradient id="N" gradientUnits="userSpaceOnUse" x1="465.8133" x2="1616.3495" xlink:href="#a" y1="230.7736" y2="1489.1725"/><linearGradient id="O" gradientUnits="userSpaceOnUse" x1="194.2128" x2="1344.749" xlink:href="#a" y1="479.094" y2="1737.4929"/><linearGradient id="P" gradientUnits="userSpaceOnUse" x1="1056.1509" x2="2206.687" xlink:href="#a" y1="-59.3057" y2="1199.0933"/><linearGradient id="Q" gradientUnits="userSpaceOnUse" x1="400.0269" x2="1550.563" xlink:href="#a" y1="290.9212" y2="1549.3201"/><linearGradient id="R" gradientUnits="userSpaceOnUse" x1="493.06" x2="1643.5962" xlink:href="#a" y1="205.8623" y2="1464.2612"/><linearGradient id="S" gradientUnits="userSpaceOnUse" x1="638.776" x2="1789.3121" xlink:href="#a" y1="72.6362" y2="1331.0352"/><linearGradient id="T" gradientUnits="userSpaceOnUse" x1="772.3325" x2="1922.8687" xlink:href="#a" y1="-49.4725" y2="1208.9264"/><linearGradient id="U" gradientUnits="userSpaceOnUse" x1="844.1237" x2="1994.6599" xlink:href="#a" y1="-115.1102" y2="1143.2887"/><path d="m33.21 368.93v-53.94h130.86c36.63 0 63.6 25.97 63.6 57.6 0 22.98-14.65 43.62-35.29 53.61 25.3 9.32 44.28 31.96 44.28 59.27 0 34.63-28.64 62.6-68.26 62.6h-135.19v-53.94h21.64v-125.2zm93.56 0v36.96h15.32c10.32 0 19.31-7.99 19.31-18.65 0-10.32-8.99-18.31-19.31-18.31zm17.65 125.2c11.32 0 20.31-8.66 20.31-19.64 0-10.99-8.99-19.31-20.31-19.31h-17.65v38.96h17.65z" fill="url(#b)"/><path d="m256.62 548.07v-41.95h17.65v-66.59h-17.65v-41.95h94.89v41.95h-17.65v8.32h25.3c37.96 0 61.6 18.64 61.6 50.28 0 28.64-23.64 49.95-61.6 49.95h-102.54zm77.58-37.96h14.32c7.33 0 12.32-5.99 12.32-11.65 0-6.99-4.99-12.99-12.32-12.99h-14.32zm77.91-112.54h94.89v41.95h-17.65v66.59h17.65v41.95h-77.25v-108.54h-17.65v-41.95z" fill="url(#c)"/><path d="m524.97 472.48c0-43.62 33.96-79.24 77.91-79.24 28.3 0 64.26 10.65 64.26 42.62 0 17.65-14.32 31.3-31.96 31.3-11.65 0-21.31-5.66-26.64-15.65-3.33-1.66-5.66-2-7.66-2-11.32 0-19.31 10.99-19.31 22.97 0 12.65 9.32 22.98 21.31 22.98 7.66 0 14.32-5 19.31-12.65l46.62 32.63c-14.65 21.98-38.62 36.63-65.93 36.63-43.95-.01-77.91-35.64-77.91-79.59z" fill="url(#d)"/><path d="m683.45 439.52v-41.95h92.56v41.95h-14.98v66.59h26.97v-108.54h60.27v108.55h26.64v-66.59h-14.98v-41.95h92.9v41.95h-17.65v66.59h17.65v41.95h-269.38v-41.95h17.65v-66.59h-17.65z" fill="url(#e)"/><path d="m1049.69 458.83c-.33-11.65-3.99-16.65-12.99-16.65-9.99 0-25.97 2.33-43.62 8.32l-12.99-42.95c22.31-9.99 43.29-14.32 68.26-14.32 35.29 0 60.93 16.65 60.93 63.93v48.95h17.65v41.95h-77.25v-12.65c-10.99 12.65-25.97 16.65-38.96 16.65-26.3 0-43.62-16.98-43.62-46.95.02-38.95 30.32-45.94 82.59-46.28zm-23.97 41.62c0 4.66 3.33 8.32 8.32 8.32s10.99-2 15.65-5.99v-12.32c-19.31.34-23.97 2.67-23.97 9.99z" fill="url(#f)"/><path d="m1141.91 506.11c4.33 1.66 7.66 2.99 10.65 2.99 7.99 0 12.32-8.32 20.64-9.66-16.31-9.99-26.64-26.64-26.64-46.61 0-31.63 23.97-55.27 61.93-55.27h102.55v41.95h-17.65v66.59h17.65v41.95h-89.24v-41.95h11.65v-5.99h-10.32c-17.31 0-6.33 52.94-56.6 52.94-6.99 0-15.32-2-24.64-5v-41.94zm91.57-39.29v-27.3h-16.31c-5.99 0-9.99 5.33-10.32 11.99 0 6.33 2.33 15.32 10.32 15.32h16.31z" fill="url(#g)"/><path d="m647.72 924.01h18.18c7.33 0 12.86 5.18 12.86 11.89 0 5.11-2.9 9.4-7.33 11.06 7.74 1.45 10.37 7.05 10.37 12.44 0 7.46-6.29 12.99-14.31 12.99h-19.77v-4.56h5.18v-39.26h-5.18zm10.58 4.56v16.38h7.33c4.77 0 7.67-3.39 7.67-8.02 0-5.05-3.66-8.36-8.99-8.36zm7.46 39.26c.41 0 .83 0 1.24-.07 5.05-.41 9.4-3.73 9.4-9.19 0-5.05-4.63-9.05-10.64-9.05h-7.46v18.32h7.46z" fill="url(#h)"/><path d="m713.8 922.97c7.19 0 18.45 3.8 18.45 11.34 0 3.04-2.07 5.11-5.32 5.11-3.04 0-5.11-2.07-5.11-5.11 0-1.52.41-2.7 1.24-3.59-2.83-1.8-6.43-2.49-9.26-2.49-11.27 0-19.77 8.92-19.77 19.97s8.5 19.97 19.77 19.97c6.91 0 12.79-3.39 16.31-8.5l4.28 3.04c-4.56 6.5-12.09 10.71-20.6 10.71-13.96 0-25.23-11.27-25.23-25.23.01-13.95 11.28-25.22 25.24-25.22z" fill="url(#i)"/><path d="m745.18 967.83v-39.26h-5.18v-4.56h30.55v12.99h-5.25v-8.43h-14.72v16.38h15.48v4.56h-15.48v18.32h14.72v-8.43h5.25v12.99h-30.55v-4.56z" fill="url(#j)"/><path d="m777.73 924.01h18.39c8.64 0 15.48 6.36 15.48 14.72s-6.84 14.86-15.48 14.86h-7.81v14.24h6.57v4.56h-17.14v-4.56h5.18v-39.26h-5.18v-4.56zm10.58 4.56v20.46h7.26c5.87 0 10.64-4.63 10.64-10.3s-4.77-10.16-10.64-10.16z" fill="url(#k)"/><path d="m842.42 922.97c13.89 0 24.74 11.27 24.74 25.23s-10.85 25.23-24.74 25.23c-13.96 0-24.74-11.27-24.74-25.23s10.78-25.23 24.74-25.23zm0 45.2c11.27 0 19.28-8.92 19.28-19.97s-8.02-19.97-19.28-19.97c-11.27 0-19.28 8.92-19.28 19.97s8.02 19.97 19.28 19.97z" fill="url(#l)"/><path d="m899.03 922.97c7.19 0 18.45 3.8 18.45 11.34 0 3.04-2.07 5.11-5.32 5.11-3.04 0-5.11-2.07-5.11-5.11 0-1.52.41-2.7 1.24-3.59-2.83-1.8-6.43-2.49-9.26-2.49-11.27 0-19.77 8.92-19.77 19.97s8.5 19.97 19.77 19.97c6.91 0 12.79-3.39 16.31-8.5l4.28 3.04c-4.56 6.5-12.09 10.71-20.6 10.71-13.96 0-25.23-11.27-25.23-25.23.01-13.95 11.28-25.22 25.24-25.22z" fill="url(#m)"/><path d="m946.35 922.97c7.19 0 18.45 3.8 18.45 11.34 0 3.04-2.07 5.11-5.32 5.11-3.04 0-5.11-2.07-5.11-5.11 0-1.52.41-2.7 1.24-3.59-2.83-1.8-6.43-2.49-9.26-2.49-11.27 0-19.77 8.92-19.77 19.97s8.5 19.97 19.77 19.97c6.91 0 12.79-3.39 16.31-8.5l4.28 3.04c-4.56 6.5-12.09 10.71-20.6 10.71-13.96 0-25.23-11.27-25.23-25.23.01-13.95 11.28-25.22 25.24-25.22z" fill="url(#n)"/><path d="m1019.27 967.83v4.56h-15.76v-4.56h5.18v-35.46l-27.51 40.02h-5.39v-43.82h-5.18v-4.56h15.76v4.56h-5.18v35.52l27.51-40.09h5.39v43.82h5.18z" fill="url(#o)"/><path d="m1074.56 967.83v4.56h-15.76v-4.56h5.18v-35.46l-27.51 40.02h-5.39v-43.82h-5.18v-4.56h15.76v4.56h-5.18v35.52l27.51-40.09h5.39v43.82h5.18zm-36.49-52.87 4.01-2.9c2.14 3.73 4.01 4.84 8.22 4.84 4.22 0 6.08-1.11 8.22-4.84l4.01 2.9c-2.76 4.91-6.84 6.57-12.23 6.57-5.39-.01-9.46-1.67-12.23-6.57z" fill="url(#p)"/><path d="m1105.04 922.97c7.19 0 18.45 3.8 18.45 11.34 0 3.04-2.07 5.11-5.32 5.11-3.04 0-5.11-2.07-5.11-5.11 0-1.52.41-2.7 1.24-3.59-2.83-1.8-6.43-2.49-9.26-2.49-11.27 0-19.77 8.92-19.77 19.97s8.5 19.97 19.77 19.97c6.91 0 12.79-3.39 16.31-8.5l4.28 3.04c-4.56 6.5-12.09 10.71-20.6 10.71-13.96 0-25.23-11.27-25.23-25.23.02-13.95 11.28-25.22 25.24-25.22z" fill="url(#q)"/><path d="m1147.07 924.01v4.56h-5.25v16.38h5.12l12.72-17.49c2.21-2.97 3.8-4.49 6.57-4.49 2.76 0 4.63 1.66 4.63 4.49 0 2.76-1.8 4.56-4.49 4.56-1.38 0-2.49-.48-3.25-1.24l-12.03 16.17c6.29.9 11.2 21.01 20.39 21.01.62 0 1.24-.14 1.87-.28v4.7c-.97.28-2 .41-3.04.41-12.37 0-17.69-23.29-23.71-23.29h-4.77v18.32h5.25v4.56h-15.83v-4.56h5.18v-39.26h-5.18v-4.56h15.82z" fill="url(#r)"/><path d="m1176.03 972.39v-4.56h3.94l18.04-43.82h3.8l18.04 43.82h3.94v4.56h-14.38v-4.56h4.42l-3.94-9.88h-19.97l-4.01 9.88h4.49v4.56zm15.69-19.01h16.38l-8.22-20.39z" fill="url(#s)"/><path d="m1266.01 924.01v4.56h-5.18v39.26h5.18v4.56h-17.14v-4.56h6.57v-14.17h-5.6c-3.94 0-7.46 19.14-18.66 19.14-1.04 0-2.07-.14-3.04-.41v-4.7c.55.21 1.18.28 1.8.28 6.77 0 9.88-13.48 13.89-15.07-7.05-1.11-12.37-6.63-12.37-13.82 0-8.57 7.05-15.07 15.48-15.07zm-18.59 4.56c-5.6 0-10.64 4.63-10.64 10.51 0 5.87 5.05 10.02 10.64 10.02h8.02v-20.53z" fill="url(#t)"/><path d="m672.47 995.55c13.89 0 24.74 11.27 24.74 25.23s-10.85 25.23-24.74 25.23c-13.96 0-24.74-11.27-24.74-25.23-.01-13.96 10.78-25.23 24.74-25.23zm0 45.2c11.27 0 19.28-8.92 19.28-19.97s-8.02-19.97-19.28-19.97c-11.27 0-19.28 8.92-19.28 19.97s8.01 19.97 19.28 19.97z" fill="url(#u)"/><path d="m699.35 1040.27c1.04.21 1.24.48 2.21.48 6.7 0 10.71-8.29 11.06-39.6h-5.18v-4.56h40.22v4.56h-5.18v39.26h5.25v4.56h-15.76v-4.56h5.18v-39.26h-19.42c0 35.52-5.6 44.23-15.14 44.23-1.24 0-1.87-.21-3.25-.41v-4.7z" fill="url(#v)"/><path d="m802.96 1040.41v4.56h-15.76v-4.56h5.18v-35.46l-27.51 40.02h-5.39v-43.82h-5.18v-4.56h15.76v4.56h-5.18v35.52l27.51-40.09h5.39v43.82h5.18z" fill="url(#w)"/><path d="m808.28 1044.97v-4.56h5.32l4.01-43.82h4.84l16.31 38.56 16.31-38.56h4.91l3.94 43.82h5.32v4.56h-16.17v-4.56h5.39l-2.76-32.55-15.9 37.11h-2.07l-15.9-37.11-2.76 32.55h5.39v4.56z" fill="url(#x)"/><path d="m890.32 1044.97h-15.76v-4.56h5.18v-39.26h-5.18v-4.56h50.73v4.56h-5.18v39.26h5.18v4.56h-15.76v-4.56h5.18v-39.26h-29.58v39.26h5.18v4.56z" fill="url(#y)"/><path d="m980.58 1040.41v4.56h-15.76v-4.56h5.18v-35.46l-27.51 40.02h-5.39v-43.82h-5.18v-4.56h15.76v4.56h-5.18v35.52l27.51-40.09h5.39v43.82h5.18z" fill="url(#z)"/><path d="m985.08 1044.97v-4.56h3.94l18.04-43.82h3.8l18.04 43.82h3.94v4.56h-14.38v-4.56h4.42l-3.94-9.88h-19.97l-4.01 9.88h4.49v4.56zm15.69-19.01h16.38l-8.22-20.39z" fill="url(#A)"/><path d="m1035.95 1040.41h5.39c3.66-6.57 8.09-15.97 8.57-39.26h-5.11v-4.56h40.29v4.56h-5.18v39.26h6.5v15.96h-4.84v-11.4h-40.71v11.4h-4.91zm19.14-39.26c0 22.26-4.77 32.76-8.16 39.26h27.58v-39.26z" fill="url(#B)"/><path d="m1089.86 1044.97v-4.56h3.94l18.04-43.82h3.8l18.04 43.82h3.94v4.56h-14.38v-4.56h4.42l-3.94-9.88h-19.97l-4.01 9.88h4.49v4.56zm15.69-19.01h16.38l-8.22-20.39z" fill="url(#C)"/><path d="m1175.49 1001.15h-5.18v39.26h20.6v-39.26h-5.18v-4.56h15.76v4.56h-5.18v39.26h20.6v-39.26h-5.18v-4.56h15.76v4.56h-5.18v39.26h5.18v4.56h-67.73v-4.56h5.18v-39.26h-5.18v-4.56h15.76v4.56z" fill="url(#D)"/><path d="m1249.93 996.59v4.56h-5.25v16.38h5.12l12.72-17.49c2.21-2.97 3.8-4.49 6.57-4.49 2.76 0 4.63 1.66 4.63 4.49 0 2.76-1.8 4.56-4.49 4.56-1.38 0-2.49-.48-3.25-1.24l-12.03 16.17c6.29.9 11.2 21.01 20.39 21.01.62 0 1.24-.14 1.87-.28v4.7c-.97.28-2 .41-3.04.41-12.37 0-17.69-23.29-23.71-23.29h-4.77v18.32h5.25v4.56h-15.83v-4.56h5.18v-39.26h-5.18v-4.56h15.82z" fill="url(#E)"/><path d="m1302.32 995.55c13.89 0 24.74 11.27 24.74 25.23s-10.85 25.23-24.74 25.23c-13.96 0-24.74-11.27-24.74-25.23-.01-13.96 10.78-25.23 24.74-25.23zm0 45.2c11.26 0 19.28-8.92 19.28-19.97s-8.02-19.97-19.28-19.97c-11.27 0-19.28 8.92-19.28 19.97s8.01 19.97 19.28 19.97z" fill="url(#F)"/><path d="m1329.21 1040.27c1.04.21 1.25.48 2.21.48 6.7 0 10.71-8.29 11.06-39.6h-5.18v-4.56h40.22v4.56h-5.18v39.26h5.25v4.56h-15.76v-4.56h5.18v-39.26h-19.42c0 35.52-5.6 44.23-15.14 44.23-1.24 0-1.87-.21-3.25-.41v-4.7z" fill="url(#G)"/><path d="m1384.15 1040.41h5.19v-39.26h-5.19v-4.56h15.76v4.56h-5.18v16.31h8.92c8.57-.07 14.58 5.67 14.58 13.62 0 8.02-6.01 13.89-14.58 13.89h-19.49v-4.56zm28.68-9.27c0-5.05-3.94-9.05-9.95-9.05h-8.15v18.32h8.15c5.88 0 9.95-3.6 9.95-9.27z" fill="url(#H)"/><path d="m1423.27 1044.97v-4.56h5.19v-39.26h-5.19v-4.56h15.76v4.56h-5.18v16.38h29.58v-16.38h-5.19v-4.56h15.76v4.56h-5.18v39.26h5.18v4.56h-15.76v-4.56h5.19v-18.32h-29.58v18.32h5.18v4.56z" fill="url(#I)"/><path d="m1529.29 1040.41v4.56h-15.76v-4.56h5.18v-35.46l-27.51 40.02h-5.39v-43.82h-5.19v-4.56h15.76v4.56h-5.18v35.52l27.51-40.09h5.39v43.82h5.19z" fill="url(#J)"/><path d="m1551.76 996.59v4.56h-5.25v16.38h5.12l12.72-17.49c2.21-2.97 3.8-4.49 6.57-4.49 2.76 0 4.63 1.66 4.63 4.49 0 2.76-1.8 4.56-4.49 4.56-1.38 0-2.49-.48-3.25-1.24l-12.03 16.17c6.29.9 11.2 21.01 20.39 21.01.62 0 1.24-.14 1.87-.28v4.7c-.97.28-2 .41-3.04.41-12.37 0-17.69-23.29-23.71-23.29h-4.77v18.32h5.25v4.56h-15.83v-4.56h5.19v-39.26h-5.19v-4.56h15.82z" fill="url(#K)"/><path d="m1604.15 995.55c13.89 0 24.74 11.27 24.74 25.23s-10.85 25.23-24.74 25.23c-13.96 0-24.74-11.27-24.74-25.23-.01-13.96 10.77-25.23 24.74-25.23zm0 45.2c11.26 0 19.28-8.92 19.28-19.97s-8.02-19.97-19.28-19.97c-11.27 0-19.28 8.92-19.28 19.97s8.01 19.97 19.28 19.97z" fill="url(#L)"/><path d="m1634.15 996.59h18.18c7.33 0 12.86 5.18 12.86 11.89 0 5.11-2.9 9.4-7.33 11.06 7.74 1.45 10.37 7.05 10.37 12.44 0 7.46-6.29 12.99-14.31 12.99h-19.77v-4.56h5.19v-39.26h-5.19zm10.57 4.56v16.38h7.33c4.77 0 7.67-3.39 7.67-8.02 0-5.05-3.66-8.36-8.98-8.36zm7.47 39.26c.41 0 .83 0 1.24-.07 5.05-.41 9.4-3.73 9.4-9.19 0-5.05-4.63-9.05-10.64-9.05h-7.47v18.32h7.47z" fill="url(#M)"/><path d="m411.43 133.42 109.79 18.09-109.79 18.08-18.09 109.79-18.08-109.79-109.8-18.08 109.8-18.09 18.08-109.79z" fill="url(#N)"/><path d="m519.16 806.11 82.35 13.56-82.35 13.56-13.56 82.35-13.57-82.35-82.34-13.56 82.34-13.56 13.57-82.35z" fill="url(#O)"/><path d="m1421.21 321.42 53.8 8.86-53.8 8.86-8.86 53.8-8.87-53.8-53.8-8.86 53.8-8.86 8.87-53.8z" fill="url(#P)"/><path d="m652.06 721.08 19.8-.03-.1-74.71-19.8.03-.06-47.07 214.05-.27.06 47.07-19.8.03.1 74.71 19.8-.03.06 47.07-100.12.13-.05-47.07 13.07-.02-.1-74.71-39.97.05.1 74.71 13.07-.02.06 47.07-100.12.13z" fill="url(#Q)"/><path d="m888.63 808.2 19.8-.03-.21-162.13-19.8.03-.05-47.07 83.31-.11.02 14.57c10.81-13.46 27.98-19.46 43.3-19.48 45.95-.06 74.76 39.88 74.83 88.82.06 49.31-28.65 88.94-74.6 89-13.08.02-28.39-2.2-39.99-15.64l.07 51.92 23.54-.03.06 47.07-110.2.14zm86.53-108.82c5.24 5.6 14.95 9.32 22.43 9.31 13.45-.02 25.39-9.75 25.37-25.81-.02-15.69-11.99-25.39-25.43-25.37-7.47.01-17.18 3.38-22.4 8.62z" fill="url(#R)"/><path d="m1107.75 682.78c-.06-48.94 39.48-88.96 88.8-89.02 49.31-.06 88.96 39.86 89.02 88.8.06 49.31-39.48 89.33-88.79 89.39-49.32.06-88.97-39.86-89.03-89.17zm88.88-25.52c-13.45.02-22.4 11.98-22.38 25.43.02 14.19 9 25.76 22.45 25.75 13.45-.02 22.4-11.61 22.38-25.8-.02-13.45-9.01-25.4-22.45-25.38z" fill="url(#S)"/><path d="m1347.13 630.17c10.82-13.09 35.09-19.47 50.41-19.49 56.41-.07 85.96 32.39 86.01 73.48.07 52.67-35.37 88.21-88.8 88.27-62.76.08-91.2-40.98-91.29-109.71-.09-72.1 15.17-112.84 83.89-125.62 27.27-4.89 51.17-10.52 77.68-16.91l11.28 50.79c-20.91 4.51-58.26 11.66-73.95 14.66-34.36 6.77-51.9 19.5-55.23 44.53zm73.67 58.93c-.02-14.57-12.36-27.62-27.31-27.61-14.94.02-27.25 13.11-27.23 27.67.02 14.94 12.36 27.63 27.3 27.61 14.94-.01 27.26-12.73 27.24-27.67z" fill="url(#T)"/><path d="m1590 666.84c-.39-13.07-4.51-18.67-14.59-18.66-11.21.01-29.13 2.65-48.93 9.4l-14.63-48.17c25.01-11.24 48.54-16.13 76.56-16.16 39.59-.05 68.38 18.59 68.45 71.64l.07 54.92 19.8-.03.06 47.07-86.67.11-.02-14.2c-12.31 14.21-29.12 18.72-43.68 18.73-29.51.04-48.96-18.99-49-52.61-.06-43.7 33.93-51.59 92.58-52.04zm-26.84 46.74c.01 5.23 3.74 9.33 9.35 9.33 5.61-.01 12.32-2.26 17.55-6.75l-.02-13.82c-21.67.39-26.89 3.01-26.88 11.24z" fill="url(#U)"/></svg>